# xmcd
#
# Track frame offsets:
#	150
#	12507
#	24750
#	35993
#	49854
#	64077
#	77156
#	92435
#	105217
#	118901
#	127931
#	143284
#	155490
#	166749
#	179033
#	192507
#	204597
#	217760
#	229560
#	242595
#	256363
#	267675
#	279007
#	293376
#
# Disc length: 4081
#
# Revision: 1
# Processed by: cddbd v1.5.1PL0 Copyright (c) Steve Scherf et al.
# Submitted via: ExactAudioCopy v0.90b4
# Normalized: r0:DSETVAR1,TDELIM( - )
#
DISCID=420fef18
DTITLE=Various Artist - The R&B Hits of 1951 [CD2]
DYEAR=1951
DGENRE=R&B
TTITLE0=Tiny Bradshaw - Wlak That Mess
TTITLE1=Howlin' Wolf - How Many More Years
TTITLE2=Peppermint Harris - I Got Loaded
TTITLE3=Donna Hightower - I Ain't In The Mood
TTITLE4=Griffin Brothers - Little Red Rooster
TTITLE5=Roscoe Gordon - Saddled The Cow
TTITLE6=Joe Turner - Chains Of Love
TTITLE7=Roy Milton - T-Town Twist
TTITLE8=B.B. King - Three O'Clock Blues
TTITLE9=Piano Red - The Wrong Yo-Yo
TTITLE10=Dinah Washington - I Won't Cry Anymore
TTITLE11=Earl Bostic - Flamingo
TTITLE12=Sonny Boy Williamson - Do It If You Wanna
TTITLE13=Johnny Otis - Mambo Boogie
TTITLE14=Tampa Red - Sweet Little Angel
TTITLE15=T-Bone Walker - Alimony Blues
TTITLE16=Roy Brown - Big Town
TTITLE17=Jimmy McCracklin - Looking For A Woman
TTITLE18=The Larks - Eyesight To The Blind
TTITLE19=Billy Wright - Stacked Deck
TTITLE20=Louis Jordan - Weak Minded Blues
TTITLE21=Camille Howard - Money Blues
TTITLE22=Jimmy Nelson - T-99 Blues
TTITLE23=Elmore James - Dust My Broom
EXTD=
EXTT0=
EXTT1=
EXTT2=
EXTT3=
EXTT4=
EXTT5=
EXTT6=
EXTT7=
EXTT8=
EXTT9=
EXTT10=
EXTT11=
EXTT12=
EXTT13=
EXTT14=
EXTT15=
EXTT16=
EXTT17=
EXTT18=
EXTT19=
EXTT20=
EXTT21=
EXTT22=
EXTT23=
PLAYORDER=
